<svg xmlns="http://www.w3.org/2000/svg" width="256" height="256" viewBox="0 0 100 100"><path fill="#4a4a4a" d="M18.09 50.36L37.69 60.20Q37.76 60.59 37.76 60.92Q37.76 61.25 37.76 61.58L37.76 61.58Q37.76 62.97 37.00 63.93Q36.24 64.88 34.59 64.88L34.59 64.88Q33.86 64.88 33.07 64.55Q32.28 64.22 31.29 63.69L31.29 63.69L12.41 53.60Q11.95 52.94 11.69 52.11Q11.42 51.29 11.42 50.36L11.42 50.36Q11.42 48.84 11.88 47.99Q12.35 47.13 13.14 46.73L13.14 46.73L34.52 35.84Q36.24 36.37 36.93 37.23Q37.63 38.09 37.63 39.14L37.63 39.14Q37.63 40.59 36.83 41.42Q36.04 42.24 34.65 43.04L34.65 43.04L18.09 50.36ZM58.75 30.43L46.67 76.70Q45.55 76.89 44.49 76.89L44.49 76.89Q41.06 76.89 41.06 73.79L41.06 73.79Q41.06 72.74 41.42 71.52Q41.78 70.30 41.98 69.50L41.98 69.50L53.93 23.24Q54.52 23.10 55.05 23.10Q55.58 23.10 56.11 23.10L56.11 23.10Q57.69 23.10 58.65 23.80Q59.60 24.49 59.60 26.14L59.60 26.14Q59.60 27.20 59.31 28.29Q59.01 29.37 58.75 30.43L58.75 30.43ZM81.91 50.10L62.84 40.46Q62.77 40.07 62.74 39.74Q62.71 39.41 62.71 39.08L62.71 39.08Q62.71 37.76 63.50 36.77Q64.29 35.78 65.87 35.78L65.87 35.78Q66.60 35.78 67.42 36.07Q68.25 36.37 69.17 36.90L69.17 36.90L87.65 47.00Q88.58 48.25 88.58 50.23L88.58 50.23Q88.58 51.75 88.12 52.57Q87.65 53.40 86.93 53.86L86.93 53.86L66.07 64.75Q64.36 64.22 63.66 63.36Q62.97 62.51 62.97 61.38L62.97 61.38Q62.97 60.00 63.73 59.17Q64.49 58.35 65.94 57.62L65.94 57.62L81.91 50.10Z"></path></svg>